<svg width="236" height="32" viewBox="0 0 236 32" fill="none" xmlns="http://www.w3.org/2000/svg">
<path d="M25.7905 17.9794C25.2772 18.2677 25.0205 18.7745 25.0205 19.5011V29.006C25.0205 29.0313 24.9952 29.0689 24.9452 29.1189C24.3411 29.5712 23.6774 29.9377 22.9728 30.2081C22.2555 30.485 21.5133 30.6928 20.7564 30.8286C19.9988 30.9649 19.2332 31.0527 18.4644 31.0913C17.7004 31.1287 16.9551 31.1472 16.229 31.1472C15.1265 31.1472 14.0124 31.1095 12.8853 31.0345C10.9064 30.8842 9.12196 30.3837 7.53181 29.5318C5.94094 28.6804 4.5883 27.5725 3.47437 26.207C2.35971 24.8422 1.50199 23.2892 0.900947 21.5483C0.299665 19.8078 -0.000976562 17.9731 -0.000976562 16.0444C-0.000976562 13.8151 0.399474 11.8427 1.2011 10.1273C2.00249 8.41208 3.09845 6.97128 4.48849 5.80684C5.87901 4.6424 7.5 3.76598 9.35363 3.17684C11.2068 2.58867 13.1857 2.2941 15.2897 2.2941C16.4168 2.2941 17.5496 2.35675 18.6895 2.48157C19.812 2.60517 20.9329 2.74296 22.052 2.8949C22.5527 2.97042 23.0476 3.04522 23.5357 3.1205C24.0243 3.19578 24.5185 3.25843 25.0195 3.30822C25.1193 3.30822 25.1698 3.35873 25.1698 3.45854C25.121 4.34486 25.0332 5.22861 24.9068 6.10724C24.7803 6.9774 24.6552 7.84776 24.5314 8.7183C24.5061 8.89388 24.4809 9.0629 24.4561 9.22536C24.4309 9.38855 24.4056 9.54446 24.3808 9.69502C24.3808 9.77055 24.3366 9.81426 24.2492 9.82664C24.1611 9.83951 24.1047 9.80794 24.08 9.73266C23.8796 8.65589 23.5168 7.7292 22.9908 6.95258C22.4646 6.17645 21.8196 5.53146 21.0561 5.01784C20.2918 4.50471 19.4339 4.12903 18.4824 3.89056C17.5302 3.65281 16.5411 3.53333 15.5143 3.53333C13.7863 3.53333 12.1765 3.82183 10.6868 4.39786C9.19627 4.97437 7.89996 5.78183 6.79818 6.8212C5.69615 7.86082 4.82604 9.11317 4.18736 10.578C3.54965 12.0436 3.23031 13.6531 3.23031 15.406C3.23031 17.3096 3.58049 19.1062 4.28231 20.7969C4.9834 22.4876 5.94142 23.9658 7.15637 25.23C8.37084 26.4955 9.81091 27.4972 11.4768 28.2359C13.1418 28.9747 14.9391 29.3438 16.868 29.3438C17.6941 29.3438 18.5331 29.2498 19.3848 29.0619C20.236 28.8744 20.9628 28.4674 21.5641 27.8413V19.3882C21.5641 18.7871 21.3764 18.3806 21.0007 18.1674C20.625 17.9549 20.1988 17.7728 19.7233 17.6227C19.5195 17.5715 19.3187 17.5087 19.122 17.4347C18.9212 17.3597 18.7214 17.2599 18.5208 17.1343C18.4455 17.0843 18.4205 17.0279 18.4455 16.9653C18.4702 16.9031 18.5208 16.8713 18.5956 16.8713C20.0983 16.8713 21.5823 16.8844 23.0476 16.909C24.5129 16.9342 25.997 16.9842 27.4997 17.0593L27.5373 17.3597C26.8858 17.485 26.3034 17.6916 25.7905 17.9794ZM45.5707 27.954C45.2389 27.9278 44.907 27.9027 44.575 27.8787C44.3691 27.8531 44.1625 27.8344 43.9553 27.8226C43.7363 27.8097 43.517 27.8034 43.2977 27.8037C42.7212 27.8037 42.1454 27.8289 41.5696 27.8792C40.9931 27.9297 40.4171 27.9795 39.8413 28.0293C39.7658 28.0293 39.7152 27.9916 39.691 27.9166C39.6657 27.8413 39.691 27.7792 39.766 27.7289L41.2313 27.0154C40.8091 25.8484 40.3644 24.6897 39.8976 23.5398C39.4261 22.3794 38.9814 21.2081 38.5642 20.0271H32.7408C32.5567 20.5083 32.3751 20.9904 32.1961 21.4735C31.9509 22.1323 31.7193 22.7962 31.5013 23.4645C31.2885 24.1119 31.088 24.7632 30.9 25.4182C30.7244 26.0321 30.637 26.4763 30.637 26.7519C30.637 27.1274 30.7995 27.3719 31.1256 27.4843C31.4508 27.5973 31.7643 27.6789 32.0647 27.7289V28.0293C31.5887 27.9795 31.1003 27.9353 30.5996 27.8977C29.5992 27.823 28.5946 27.823 27.5942 27.8977C27.0929 27.9353 26.5922 27.9795 26.0914 28.0293C26.0164 28.0545 25.9722 28.0171 25.9598 27.9166C25.9469 27.8168 25.9785 27.7539 26.0538 27.7289C27.431 27.5538 28.3958 26.827 28.9466 25.5498V25.5872C29.6727 23.7594 30.3742 21.9305 31.0506 20.1021C31.7295 18.2667 32.3933 16.4257 33.0419 14.5794C33.4924 13.3272 33.9307 12.081 34.3566 10.841C34.7873 9.58776 35.2381 8.34156 35.709 7.1029C35.7338 7.02786 35.7843 6.99022 35.8591 6.99022C35.9344 6.99022 35.9844 7.02786 36.0094 7.1029C36.1333 7.45014 36.2649 7.79457 36.4041 8.13596C36.5426 8.47756 36.6741 8.82199 36.7984 9.16902C37.8349 11.9997 38.9058 14.8176 40.011 17.6222C41.1277 20.458 42.4007 23.2297 43.8242 25.9246C44.1246 26.5013 44.5063 26.9141 44.9699 27.1645C45.433 27.4146 45.9656 27.565 46.5666 27.615V27.9154C46.215 27.9669 45.8835 27.9793 45.5707 27.954ZM35.6712 10.9729C35.2557 12.2664 34.8488 13.5627 34.4504 14.8615C34.0446 16.1787 33.6125 17.4877 33.1543 18.7876H38.0008L35.6712 10.9729ZM73.6782 27.9914H70.6352C69.6332 27.9914 68.6441 27.9669 67.6673 27.9164C67.517 27.9164 67.4665 27.8537 67.517 27.7286C67.5418 27.6786 67.5605 27.6286 67.5731 27.5786C67.5863 27.5266 67.6051 27.4763 67.6292 27.4285L67.8546 26.7522C67.9299 26.5266 67.9675 26.3141 67.9675 26.1132C67.9675 24.6858 67.8981 23.2768 67.7604 21.887C67.6216 20.4888 67.465 19.0924 67.2907 17.6982C67.2018 16.9399 67.1079 16.1822 67.009 15.4252C66.9208 14.7622 66.8521 13.9919 66.8021 13.1148C65.8578 14.9278 64.9435 16.7563 64.0597 18.5996C63.183 20.4283 62.3061 22.2814 61.4301 24.1598C61.1331 24.7783 60.8387 25.398 60.5469 26.019C60.2555 26.6403 59.9612 27.2603 59.6642 27.879C59.6389 27.9295 59.6013 27.9542 59.5515 27.9542C59.501 27.9542 59.451 27.9295 59.4012 27.879C58.2489 26.2762 57.2532 24.6419 56.4144 22.9764C55.581 21.323 54.7856 19.6508 54.0287 17.961C53.6655 17.1686 53.3086 16.3733 52.958 15.5753C52.6079 14.7837 52.2385 14.0008 51.8502 13.2272C51.7772 13.8348 51.7019 14.4422 51.6243 15.0493C51.549 15.6382 51.4742 16.2205 51.399 16.796C51.2002 18.3336 51.0248 19.8742 50.873 21.4171C50.7215 22.9653 50.6462 24.52 50.6474 26.0756C50.6474 26.5263 50.76 26.8333 50.9856 26.996C51.2112 27.1594 51.4864 27.3034 51.812 27.4282C51.9119 27.4785 52.0498 27.5346 52.2251 27.5968C52.4002 27.6602 52.5129 27.7034 52.5634 27.7284C52.6389 27.7787 52.6632 27.8411 52.6389 27.9161C52.6137 27.9912 52.5634 28.0288 52.4886 28.0288C52.1377 28.0288 51.7936 28.0232 51.4555 28.0101C51.1108 27.9973 50.7663 27.9786 50.4222 27.954C50.0719 27.9291 49.7212 27.9103 49.3702 27.8977C49.0191 27.8855 48.6684 27.8792 48.3182 27.8792H47.5666C47.3413 27.8792 47.0907 27.9045 46.8153 27.9545C46.74 27.9797 46.6895 27.9419 46.665 27.8418C46.6397 27.742 46.665 27.6789 46.7405 27.6541C46.9406 27.6041 47.0907 27.5788 47.1912 27.5788C47.4323 27.537 47.6707 27.4806 47.9049 27.4098C48.105 27.3474 48.293 27.1786 48.4683 26.9027C48.5183 26.827 48.5866 26.5025 48.675 25.9258C48.7624 25.35 48.8627 24.6176 48.9756 23.728C49.0883 22.8395 49.2134 21.8309 49.3511 20.7039C49.4909 19.5527 49.6225 18.4006 49.7457 17.2475C49.8707 16.0707 49.9958 14.9125 50.1214 13.7724C50.2464 12.633 50.3591 11.5873 50.4594 10.6353C50.5592 9.80892 50.6347 9.07625 50.685 8.43757C50.735 7.79889 50.7848 7.3421 50.8353 7.06623C50.8353 6.99095 50.8664 6.94797 50.9293 6.93461C50.9917 6.92247 51.0481 6.94092 51.0986 6.99095C51.3987 7.31685 51.8244 7.96184 52.3757 8.92569C52.9265 9.89027 53.5217 11.0108 54.1603 12.2881C54.8334 13.636 55.4971 14.9885 56.1514 16.3456C56.7904 17.6698 57.4228 18.9972 58.0485 20.3277C58.4742 21.2049 58.8247 21.9562 59.1005 22.582C59.3762 23.2083 59.6265 23.7343 59.8521 24.1598C60.2801 23.2994 60.6872 22.4288 61.0729 21.5487C61.486 20.6094 61.893 19.6767 62.2939 18.75C63.1883 16.6818 64.1151 14.6278 65.074 12.5888C66.0505 10.51 67.0899 8.65686 68.1921 7.02859C68.2422 6.97857 68.2919 6.95987 68.3425 6.97201C68.3925 6.98512 68.4177 7.02859 68.4177 7.10363C68.4678 7.40403 68.5117 7.82391 68.5494 8.36229C68.587 8.90141 68.6433 9.5209 68.7184 10.222C68.7937 11.1489 68.8874 12.1633 69.0001 13.2651C69.1128 14.3673 69.2315 15.4946 69.3571 16.6462C69.4821 17.7985 69.6072 18.9192 69.7327 20.0086C69.8457 21.0066 69.9771 22.0025 70.1271 22.9956C70.2646 23.8973 70.3959 24.655 70.5217 25.2681C70.6468 25.8823 70.7719 26.2641 70.8974 26.4139C71.1728 26.8151 71.4358 27.0717 71.6864 27.1844C71.9363 27.2974 72.2372 27.3789 72.5881 27.429C72.7632 27.4792 72.9453 27.5106 73.1328 27.523C73.3208 27.5358 73.5146 27.5919 73.7151 27.6917L73.6782 27.9914ZM85.7255 26.0943C85.6477 26.6512 85.5725 27.2084 85.4999 27.766C85.4999 27.8416 85.4494 27.879 85.3496 27.879L85.3124 27.9164C85.1116 27.9914 84.9491 28.029 84.8241 28.029C84.2476 28.029 83.6655 28.0237 83.077 28.0103C82.4949 27.9978 81.9126 27.9915 81.3303 27.9914C80.8293 27.9914 80.3407 27.9858 79.8649 27.9732C79.3767 27.9603 78.8883 27.954 78.3999 27.9542C77.7235 27.9542 77.0407 27.9603 76.3522 27.9732C75.663 27.9858 74.9811 28.0048 74.3048 28.029V27.7286C74.6805 27.7286 74.9867 27.6475 75.2252 27.4841C75.4572 27.328 75.6448 27.1145 75.7699 26.8644C75.8949 26.6142 75.9765 26.3323 76.0142 26.019C76.0516 25.7065 76.0703 25.3869 76.0703 25.0615V9.43251C76.0703 8.93176 75.9513 8.60635 75.7133 8.45603C75.4708 8.30354 75.2126 8.17759 74.9432 8.08035L74.4359 7.91109C74.2482 7.84892 74.0539 7.7547 73.8538 7.62939C73.8033 7.57936 73.7846 7.52302 73.7977 7.46037C73.8099 7.3982 73.8538 7.36639 73.9291 7.36639H84.6361C84.7393 7.31505 84.846 7.27107 84.9554 7.23477C85.0681 7.19713 85.174 7.1539 85.2745 7.10314C85.3998 7.05336 85.4623 7.10314 85.4623 7.25347C85.3933 7.86442 85.2993 8.47228 85.1806 9.07553C85.0679 9.63892 84.9486 10.2089 84.8236 10.7849C84.7983 10.8602 84.742 10.8915 84.6546 10.8789C84.5666 10.8665 84.5229 10.8228 84.5229 10.7473C84.4724 9.87084 84.172 9.2953 83.6215 9.01894C83.07 8.74356 82.3937 8.60587 81.5928 8.60587H78.6247V16.3077H82.9826C83.1079 16.3077 83.2703 16.2703 83.4712 16.1948C83.671 16.1195 83.8711 16.0447 84.0722 15.9694C84.3337 15.8249 84.6111 15.7113 84.8989 15.6311C85.0239 15.5813 85.0866 15.6311 85.0866 15.7812C85.0613 16.0816 85.0305 16.4077 84.9924 16.7579C84.9581 17.0847 84.9143 17.4104 84.8607 17.7346C84.8091 18.0459 84.7715 18.3593 84.748 18.6739C84.7241 18.9885 84.6865 19.3018 84.6354 19.613C84.6354 19.6883 84.6038 19.7388 84.5416 19.7633C84.4787 19.7886 84.4224 19.7762 84.3726 19.7257C84.2468 19.6006 84.1659 19.4758 84.1283 19.35C84.0867 19.2116 84.0428 19.0739 83.9967 18.937C83.9462 18.7869 83.8962 18.6366 83.8464 18.4862C83.7959 18.3359 83.7084 18.1985 83.5834 18.0732C83.4576 17.9481 83.2264 17.8543 82.8883 17.7912C82.5275 17.7257 82.1641 17.6756 81.799 17.6411C81.4181 17.6041 81.0356 17.5854 80.653 17.585H78.6616V25.3242C79.0373 25.8757 79.5689 26.2951 80.2581 26.5829C80.9468 26.8714 81.6166 27.0149 82.2679 27.0149C83.1446 27.0149 83.8894 26.7835 84.5033 26.3199C85.1167 25.8568 85.5235 25.1994 85.7243 24.3475L86.0244 24.4228C85.9043 24.9761 85.8046 25.5337 85.7255 26.0943ZM108.634 14.819C108.619 14.8623 108.587 14.8805 108.537 14.8729C108.487 14.8661 108.462 14.8407 108.462 14.7974C108.462 14.3232 108.333 13.9892 108.074 13.7952C107.815 13.6014 107.456 13.5043 106.996 13.5043C106.794 13.5043 106.604 13.5152 106.424 13.5368C106.245 13.5582 106.054 13.5832 105.853 13.6121C105.709 13.6412 105.552 13.6629 105.379 13.6772C105.207 13.6918 105.048 13.6988 104.905 13.6988V17.9231H107.814C107.915 17.9231 108.03 17.8798 108.159 17.7939C108.288 17.7077 108.389 17.6212 108.461 17.5355C108.489 17.5068 108.522 17.4996 108.557 17.5136C108.593 17.5285 108.612 17.5569 108.612 17.5998C108.557 18.3739 108.456 19.1439 108.31 19.9059C108.295 19.9491 108.263 19.9671 108.213 19.9598C108.163 19.953 108.138 19.9273 108.138 19.8843C108.152 19.41 108.033 19.0834 107.782 18.9037C107.53 18.7242 107.175 18.6346 106.715 18.6346H104.904V22.9451C104.904 23.117 104.94 23.2967 105.012 23.484C105.084 23.6707 105.185 23.8358 105.314 23.9796C105.443 24.1234 105.594 24.2378 105.766 24.3245C105.939 24.4104 106.126 24.4536 106.327 24.4536V24.6261H106.176C106.018 24.6261 105.867 24.6188 105.723 24.6047C105.579 24.5904 105.428 24.5763 105.271 24.5612C105.12 24.5478 104.969 24.5371 104.818 24.5292C104.675 24.5219 104.531 24.5182 104.387 24.5182C104.244 24.5182 104.1 24.5255 103.957 24.5399L103.526 24.5828C103.196 24.6111 102.866 24.6255 102.535 24.6261H102.405C102.362 24.6261 102.337 24.6008 102.33 24.5503C102.322 24.5 102.34 24.468 102.384 24.4536C102.642 24.4102 102.844 24.3567 102.987 24.2919C103.13 24.2271 103.235 24.1411 103.299 24.0333C103.364 23.9257 103.4 23.7895 103.407 23.6236C103.414 23.4585 103.418 23.2465 103.418 22.9881V13.9788C103.418 13.6483 103.353 13.4436 103.224 13.3644C103.083 13.281 102.931 13.2194 102.772 13.1815C102.683 13.1467 102.593 13.1144 102.502 13.0844C102.385 13.0443 102.273 12.99 102.168 12.9227C102.126 12.894 102.111 12.8617 102.126 12.8258C102.14 12.7903 102.168 12.7719 102.211 12.7719C103.117 12.8148 104.029 12.8367 104.949 12.8367H106.479C106.55 12.8367 106.626 12.8403 106.705 12.8476C106.784 12.8547 106.867 12.8583 106.953 12.8583C107.283 12.8729 107.624 12.8729 107.976 12.8583C108.328 12.844 108.634 12.7651 108.892 12.6211C108.921 12.5922 108.953 12.5922 108.989 12.6211C109.025 12.65 109.036 12.6859 109.021 12.7289L108.634 14.819Z" fill="black"/>
<path d="M226.222 4.21256C226.195 5.09506 226.077 5.89086 225.867 6.60166C225.84 6.68059 225.787 6.71993 225.709 6.71993C225.63 6.71993 225.577 6.68059 225.551 6.60166C225.419 5.9438 225.215 5.411 224.938 5.00229C224.67 4.60217 224.312 4.27081 223.892 4.03504C223.471 3.79803 222.996 3.63411 222.47 3.54134C221.922 3.44775 221.367 3.40152 220.811 3.40316H120.624V26.4658C120.624 27.5191 120.96 28.4144 121.631 29.1515C122.303 29.889 123.138 30.3361 124.139 30.4944C124.218 30.5201 124.251 30.5799 124.238 30.6714C124.224 30.7637 124.178 30.8094 124.099 30.8094C123.172 30.7303 122.244 30.6645 121.315 30.6122C120.38 30.5597 119.439 30.5335 118.492 30.5335C117.807 30.5335 117.129 30.5529 116.458 30.5925C115.787 30.6321 115.109 30.6785 114.424 30.7307C114.345 30.7307 114.299 30.685 114.286 30.5925C114.272 30.5007 114.306 30.4412 114.385 30.4152C115.017 30.2836 115.51 30.1386 115.866 29.9808C116.221 29.8227 116.484 29.6126 116.656 29.3484C116.827 29.0856 116.933 28.75 116.972 28.3416C117.011 27.9334 117.031 27.4132 117.031 26.7815V3.44226H110.515C109.672 3.44226 108.929 3.73829 108.284 4.33083C107.639 4.92312 107.158 5.58827 106.843 6.32506C106.79 6.40399 106.73 6.43726 106.665 6.42366C106.599 6.41054 106.566 6.3644 106.566 6.28548C106.513 6.02248 106.487 5.78571 106.487 5.57468C106.487 5.04843 106.553 4.53506 106.684 4.03456C106.89 3.25932 107.114 2.48897 107.356 1.72413C107.435 1.47449 107.501 1.23068 107.554 0.993417C107.606 0.835811 107.685 0.809583 107.791 0.914492C108.344 1.2569 108.883 1.47449 109.41 1.56653C109.936 1.65881 110.541 1.70446 111.226 1.70446H223.774C223.985 1.70446 224.214 1.67168 224.465 1.60587C224.715 1.54006 224.946 1.48105 225.157 1.42835C225.307 1.39905 225.459 1.37273 225.611 1.34943C225.781 1.32368 225.959 1.29673 226.143 1.2705C226.222 1.2705 226.262 1.32368 226.262 1.42835V1.74405C226.26 2.56704 226.247 3.38996 226.222 4.21256Z" fill="black"/>
<path d="M144.823 28.1043C143.509 28.0292 142.194 27.9915 140.878 27.9912C140.402 27.9912 139.932 27.9975 139.469 28.0101C139.006 28.0235 138.524 28.0417 138.023 28.0662C137.948 28.0662 137.904 28.023 137.891 27.9348C137.878 27.8472 137.91 27.7911 137.986 27.7658C138.761 27.5402 139.263 27.2398 139.488 26.8641C139.714 26.4884 139.827 25.9 139.827 25.0984V17.2844H128.293V25.1737C128.293 26.7517 129.107 27.616 130.735 27.766C130.811 27.766 130.848 27.8166 130.848 27.9164C130.848 28.0169 130.811 28.0664 130.735 28.0664H129.571C129.22 28.0664 128.844 28.0796 128.443 28.1038C128.168 28.1038 127.848 28.1102 127.486 28.1225C127.122 28.1356 126.803 28.1412 126.528 28.1412H125.589C125.263 28.1412 124.937 28.1289 124.612 28.1038C124.512 28.1038 124.392 28.0983 124.255 28.0854C124.136 28.0736 124.017 28.0673 123.898 28.0664C123.822 28.0664 123.779 28.023 123.767 27.9351C123.753 27.8474 123.785 27.7913 123.861 27.766C124.261 27.6908 124.586 27.6099 124.837 27.522C125.087 27.4346 125.275 27.3095 125.4 27.1461C125.526 26.9834 125.607 26.7767 125.645 26.5261C125.682 26.2762 125.701 25.9503 125.701 25.5496V9.54519C125.701 8.99442 125.482 8.58134 125.043 8.30571C124.605 8.03057 124.136 7.88025 123.634 7.85499V7.55459C124.686 7.62988 125.725 7.66752 126.753 7.66752C127.179 7.66752 127.604 7.66169 128.03 7.64857C128.456 7.63643 128.882 7.62987 129.308 7.62987H130.097C130.172 7.62987 130.209 7.68039 130.209 7.7802C130.209 7.88073 130.172 7.93052 130.097 7.93052C129.646 7.93052 129.239 8.06821 128.876 8.34384C128.512 8.61971 128.331 9.00753 128.331 9.50852V16.0454H139.828V9.6586C139.828 9.05707 139.671 8.67556 139.357 8.51237C139.044 8.34991 138.663 8.2059 138.212 8.08059C138.117 8.05732 138.023 8.03214 137.93 8.00507C137.836 7.97869 137.742 7.95359 137.648 7.92979C137.573 7.90477 137.541 7.84892 137.554 7.76077C137.566 7.67334 137.61 7.62939 137.686 7.62939C139.356 7.7354 141.029 7.76668 142.701 7.72313C143.214 7.71074 143.721 7.69204 144.223 7.66703C144.298 7.66703 144.342 7.71098 144.355 7.79841C144.367 7.88632 144.336 7.9429 144.26 7.96743C143.709 8.06772 143.271 8.21173 142.946 8.39921C142.62 8.58717 142.457 8.99442 142.457 9.62023V25.0236C142.457 25.8755 142.645 26.5139 143.02 26.9396C143.396 27.3661 144.01 27.6534 144.862 27.8039L144.823 28.1043ZM164.972 28.386C164.523 28.4969 164.063 28.5537 163.601 28.555C162.849 28.555 162.173 28.4176 161.572 28.1417C160.971 27.8666 160.432 27.5162 159.957 27.0897C159.481 26.6643 159.037 26.1757 158.623 25.6246C158.21 25.0743 157.816 24.5105 157.44 23.9342C157.086 23.4039 156.716 22.884 156.332 22.3751C155.943 21.8623 155.518 21.3987 155.054 20.9851C154.591 20.5715 154.09 20.2403 153.552 19.9894C153.013 19.7393 152.406 19.6135 151.73 19.6135H151.128C150.953 19.6135 150.765 19.6388 150.565 19.6888V25.0236C150.565 25.7502 150.784 26.3702 151.222 26.8831C151.66 27.3967 152.243 27.6908 152.969 27.766V28.0664C152.4 28.0172 151.83 27.9734 151.26 27.9351C150.691 27.8974 150.121 27.8786 149.551 27.879C148.974 27.879 148.417 27.9042 147.879 27.9542C147.339 28.0048 146.782 28.0669 146.207 28.1417C146.131 28.167 146.075 28.1361 146.038 28.0477C146 27.9603 146.019 27.8913 146.094 27.8411C146.62 27.591 147.058 27.2155 147.409 26.7138C147.759 26.2131 147.935 25.6747 147.935 25.0982V10.1088C147.935 9.5328 147.728 9.02574 147.315 8.58717C146.902 8.14908 146.407 7.85426 145.831 7.70394C145.756 7.67917 145.724 7.62308 145.737 7.53517C145.749 7.44774 145.793 7.40354 145.868 7.40354H153.269C154.046 7.40354 154.81 7.49752 155.561 7.68524C156.313 7.87296 156.976 8.16778 157.552 8.56823C158.128 8.96892 158.591 9.49468 158.943 10.146C159.293 10.7975 159.468 11.5737 159.468 12.4753C159.468 13.6774 159.136 14.8176 158.473 15.8939C157.809 16.9711 157.064 17.8981 156.237 18.6742C156.513 18.9743 156.813 19.3568 157.139 19.8199C157.482 20.3077 157.833 20.79 158.191 21.2666C158.762 22.0451 159.344 22.8153 159.938 23.577C160.551 24.366 161.196 25.0797 161.873 25.7184C162.549 26.3573 163.25 26.8583 163.977 27.2211C164.703 27.5844 165.442 27.716 166.193 27.6157L166.306 27.9161C165.878 28.1175 165.431 28.275 164.972 28.386ZM156.519 11.9119C156.332 11.2609 156.049 10.6725 155.674 10.1462C155.303 9.6247 154.83 9.1838 154.284 8.85017C153.732 8.51189 153.094 8.34311 152.367 8.34311C152.067 8.34311 151.766 8.36181 151.466 8.39921C151.167 8.43645 150.875 8.51882 150.601 8.64351V17.9981C151.027 18.0734 151.44 18.1237 151.841 18.1482C152.254 18.1737 152.667 18.1861 153.08 18.1856C154.483 18.1856 155.453 17.8043 155.992 17.0396C156.53 16.2759 156.799 15.2175 156.799 13.8649C156.801 13.2146 156.707 12.5635 156.519 11.9119ZM184.053 22.4125C183.465 23.6525 182.682 24.723 181.705 25.6246C180.728 26.5266 179.595 27.2281 178.306 27.7286C177.015 28.2299 175.657 28.4802 174.229 28.4802C173.051 28.4802 171.831 28.1922 170.566 27.616C169.303 27.0408 168.131 26.281 167.091 25.3616C166.039 24.4357 165.169 23.3834 164.48 22.2061C163.791 21.0288 163.447 19.8394 163.447 18.637C163.447 16.8091 163.616 15.237 163.954 13.922C164.292 12.607 164.837 11.493 165.588 10.578C166.34 9.66394 167.329 8.91282 168.556 8.32417C169.783 7.736 171.286 7.25347 173.064 6.87754L173.553 6.8399C175.156 6.71484 176.646 6.94675 178.024 7.53492C179.401 8.12358 180.603 8.95022 181.631 10.0144C182.657 11.0792 183.465 12.3374 184.054 13.7899C184.642 15.2426 184.937 16.7703 184.937 18.3733C184.936 19.8265 184.641 21.1726 184.053 22.4125ZM173.856 8.08181C173.543 8.08659 173.23 8.10726 172.92 8.14373L172.919 27.1104C173.222 27.1757 173.534 27.2211 173.855 27.2481L173.856 8.08181ZM176.094 27.1492C176.763 27.0307 177.381 26.8296 177.949 26.5453C178.926 26.0567 179.745 25.4061 180.41 24.5913C181.073 23.7778 181.574 22.8324 181.913 21.7552C182.25 20.6784 182.419 19.5387 182.419 18.3364C182.419 17.1095 182.237 15.8825 181.875 14.6546C181.512 13.4278 180.973 12.3255 180.259 11.3488C179.546 10.3721 178.668 9.58307 177.629 8.98179C177.147 8.70335 176.631 8.48843 176.094 8.34238L176.094 27.1492ZM175.442 8.19716C175.133 8.14324 174.82 8.10812 174.506 8.09201V27.2774H174.567C174.867 27.2774 175.159 27.2638 175.442 27.2371V8.19716ZM172.274 8.24573C171.692 8.36181 171.147 8.53787 170.641 8.77489C169.652 9.23872 168.819 9.8774 168.143 10.6914C167.466 11.5057 166.946 12.4448 166.583 13.5089C166.22 14.5738 166.039 15.7069 166.039 16.909C166.039 18.1615 166.227 19.4015 166.602 20.6281C166.978 21.8555 167.535 22.9636 168.274 23.9527C169.013 24.9425 169.908 25.7436 170.96 26.3573C171.375 26.5993 171.816 26.7945 172.274 26.9394L172.274 8.24573ZM207.223 7.83581C207.21 7.82342 207.179 7.83022 207.129 7.85475C206.754 7.96318 206.384 8.08853 206.021 8.23043C205.632 8.38075 205.439 8.64375 205.439 9.01943L205.476 18.0736V19.614C205.476 21.0482 205.451 22.4824 205.401 23.9157C205.35 25.3391 205.262 26.761 205.138 28.1798C205.138 28.2304 205.106 28.2738 205.044 28.3112C204.981 28.3486 204.925 28.3428 204.875 28.2925C203.673 27.2655 202.471 26.1574 201.268 24.9677C200.062 23.775 198.879 22.5601 197.718 21.3236C196.555 20.0865 195.41 18.8342 194.28 17.5668C193.19 16.3446 192.113 15.1109 191.049 13.8661C190.724 13.5198 190.411 13.1628 190.11 12.7957C189.809 12.4284 189.496 12.0713 189.171 11.725C189.097 12.3736 189.06 13.0258 189.058 13.6786C189.058 14.6306 189.071 15.5823 189.096 16.5338C189.121 17.4857 189.158 18.4374 189.209 19.3889C189.309 21.3033 189.359 23.22 189.359 25.137C189.359 25.5632 189.396 25.9071 189.472 26.1701C189.547 26.4331 189.641 26.64 189.753 26.7903C189.866 26.9404 190.003 27.0472 190.167 27.1094C190.329 27.1723 190.498 27.2162 190.674 27.2408C190.874 27.2913 191.074 27.3474 191.275 27.4098C191.475 27.4727 191.713 27.6041 191.989 27.8042C192.039 27.8544 192.057 27.9105 192.045 27.9734C192.032 28.0361 191.989 28.0672 191.913 28.0672C191.663 28.0422 191.418 28.0176 191.18 27.9916C190.942 27.9671 190.698 27.9419 190.447 27.9166C190.092 27.8663 189.735 27.8287 189.377 27.8037C189.02 27.779 188.663 27.7665 188.306 27.7663C187.841 27.7675 187.377 27.7989 186.916 27.8603C186.44 27.9234 185.964 27.9916 185.488 28.0672C185.413 28.0924 185.357 28.0672 185.32 27.9916C185.282 27.9166 185.288 27.8544 185.338 27.8042C185.538 27.6291 185.72 27.4911 185.883 27.3911C186.036 27.2966 186.192 27.2088 186.353 27.1278C186.653 26.9778 186.922 26.7709 187.16 26.5081C187.398 26.2451 187.517 25.8257 187.517 25.2492V7.66727L187.818 7.06575C187.843 7.01572 187.88 6.97857 187.931 6.95307C187.98 6.9283 188.018 6.94068 188.043 6.99047C190.71 9.75407 193.352 12.5405 195.971 15.3494C198.589 18.1618 201.181 20.9984 203.747 23.8589V23.7462C203.747 22.5944 203.741 21.4543 203.728 20.3275C203.716 19.2004 203.697 18.0486 203.672 16.8713C203.647 15.7945 203.622 14.649 203.597 13.4339C203.572 12.2194 203.56 11.0734 203.56 9.99639C203.56 9.57093 203.515 9.22633 203.428 8.96333C203.34 8.70033 203.221 8.49999 203.071 8.36181C202.921 8.2246 202.757 8.13086 202.582 8.08035C202.41 8.0311 202.234 7.99338 202.056 7.96743C201.873 7.94553 201.692 7.91416 201.512 7.87345C201.347 7.83527 201.197 7.75054 201.08 7.62939C201.029 7.57936 201.024 7.51671 201.061 7.44143C201.099 7.36639 201.142 7.34186 201.193 7.36639C201.769 7.44143 202.307 7.47907 202.808 7.47907H204.386C204.711 7.47907 205.043 7.47348 205.382 7.46037C205.726 7.44838 206.071 7.45462 206.415 7.47907C206.54 7.47907 206.678 7.48563 206.828 7.49801C206.965 7.51011 207.103 7.51634 207.241 7.51671L207.317 7.81735C207.267 7.84212 207.235 7.84868 207.223 7.83581ZM221.447 26.0943C221.369 26.6512 221.294 27.2084 221.222 27.766C221.222 27.8416 221.171 27.879 221.071 27.879L221.034 27.9164C220.833 27.9914 220.67 28.029 220.545 28.029C219.969 28.029 219.387 28.0237 218.798 28.0103C218.216 27.9978 217.634 27.9915 217.052 27.9914C216.551 27.9914 216.062 27.9858 215.587 27.9732C215.099 27.9603 214.61 27.954 214.122 27.9542C213.445 27.9542 212.762 27.9603 212.074 27.9732C211.385 27.9858 210.703 28.0048 210.026 28.029V27.7286C210.402 27.7286 210.709 27.6475 210.947 27.4841C211.179 27.328 211.366 27.1145 211.491 26.8644C211.617 26.6142 211.698 26.3323 211.735 26.019C211.773 25.7065 211.792 25.3869 211.792 25.0615V9.43251C211.792 8.93176 211.673 8.60635 211.435 8.45603C211.192 8.30349 210.934 8.17754 210.664 8.08035L210.157 7.91109C209.97 7.84892 209.775 7.7547 209.575 7.62939C209.525 7.57936 209.506 7.52302 209.519 7.46037C209.531 7.3982 209.575 7.36639 209.65 7.36639H220.358C220.457 7.31636 220.565 7.27241 220.677 7.23477C220.786 7.19874 220.893 7.15475 220.996 7.10315C221.121 7.05336 221.184 7.10315 221.184 7.25347C221.114 7.86437 221.02 8.47222 220.902 9.07553C220.789 9.63893 220.67 10.2089 220.545 10.7849C220.52 10.8602 220.463 10.8915 220.376 10.8789C220.288 10.8665 220.244 10.8228 220.244 10.7473C220.194 9.87084 219.893 9.2953 219.343 9.01894C218.791 8.74356 218.115 8.60587 217.314 8.60587H214.346V16.3077H218.704C218.829 16.3077 218.992 16.2703 219.192 16.1948L219.794 15.9694C220.055 15.8249 220.332 15.7113 220.62 15.6311C220.745 15.5813 220.807 15.6311 220.807 15.7812C220.782 16.0816 220.751 16.4077 220.714 16.7579C220.679 17.0847 220.635 17.4104 220.582 17.7346C220.53 18.0459 220.493 18.3593 220.47 18.6739C220.445 18.9885 220.408 19.3018 220.356 19.613C220.356 19.6883 220.325 19.7388 220.262 19.7633C220.2 19.7886 220.143 19.7762 220.093 19.7257C219.968 19.6006 219.887 19.4758 219.849 19.35C219.807 19.2118 219.763 19.0741 219.718 18.9369C219.667 18.7869 219.617 18.6366 219.567 18.4862C219.517 18.3359 219.43 18.1985 219.304 18.0732C219.179 17.9481 218.948 17.8543 218.609 17.7912C218.249 17.7257 217.885 17.6756 217.521 17.6411C217.14 17.6041 216.757 17.5854 216.374 17.585H214.383V25.3242C214.759 25.8757 215.29 26.2951 215.979 26.5829C216.668 26.8714 217.338 27.0149 217.989 27.0149C218.865 27.0149 219.611 26.7835 220.224 26.3199C220.838 25.8568 221.245 25.1994 221.445 24.3475L221.746 24.4228C221.626 24.9761 221.526 25.5337 221.447 26.0943ZM235.305 24.986C234.842 25.7125 234.253 26.3323 233.539 26.8459C232.826 27.3593 232.037 27.7607 231.172 28.0477C230.308 28.3362 229.487 28.4798 228.712 28.4798C228.336 28.4798 227.941 28.436 227.528 28.3481C227.115 28.2607 226.739 28.1172 226.401 27.9164C226.062 27.7163 225.787 27.4596 225.574 27.1461C225.361 26.833 225.255 26.4389 225.255 25.9627C225.255 25.662 225.287 25.3612 225.349 25.061C225.412 24.7606 225.468 24.4728 225.518 24.1965L225.706 23.295C225.706 23.2198 225.756 23.1821 225.856 23.1821C225.956 23.1821 226.007 23.2198 226.007 23.295V23.8584C226.007 24.3844 226.119 24.8483 226.345 25.2485C226.565 25.6441 226.858 25.9946 227.209 26.2815C227.559 26.57 227.966 26.7828 228.43 26.9207C228.893 27.0581 229.363 27.1271 229.839 27.1271C230.29 27.1271 230.753 27.0521 231.229 26.902C231.695 26.7565 232.133 26.5343 232.525 26.2444C232.91 25.9598 233.236 25.6024 233.483 25.1926C233.733 24.7793 233.859 24.3225 233.859 23.8213C233.859 23.3458 233.746 22.8761 233.52 22.4125C233.295 21.9494 232.994 21.4798 232.619 21.0038C232.221 20.5036 231.794 20.0269 231.341 19.5761C230.859 19.0942 230.37 18.6183 229.876 18.1484C229.347 17.6446 228.821 17.1373 228.298 16.6268C227.772 16.1136 227.308 15.5879 226.908 15.0488C226.507 14.5106 226.182 13.9657 225.931 13.4147C225.681 12.8639 225.556 12.3007 225.556 11.7242C225.556 10.8733 225.794 10.1406 226.269 9.52625C226.745 8.91306 227.334 8.41208 228.035 8.02353C228.736 7.6357 229.5 7.3472 230.327 7.15949C231.153 6.97152 231.917 6.87754 232.619 6.87754C233.62 6.87754 234.535 7.00309 235.361 7.25322C235.437 7.30374 235.475 7.35352 235.475 7.4033C235.369 8.67304 235.219 9.93864 235.024 11.1977C234.999 11.2728 234.948 11.3107 234.873 11.3107C234.798 11.3107 234.748 11.2728 234.723 11.1977C234.523 10.3213 234.141 9.56996 233.577 8.94366C233.014 8.31785 232.268 8.00434 231.342 8.00434C230.39 8.00434 229.595 8.3113 228.957 8.92472C228.318 9.53887 227.999 10.3211 227.999 11.2725C227.999 11.774 228.105 12.2371 228.318 12.6628C228.53 13.0893 228.806 13.5023 229.144 13.9025C229.483 14.3035 229.877 14.6979 230.328 15.0859C230.788 15.4835 231.252 15.878 231.718 16.2695C232.249 16.7004 232.769 17.1451 233.277 17.6032C233.776 18.0512 234.234 18.5414 234.648 19.0686C235.041 19.5699 235.369 20.119 235.625 20.7027C235.874 21.2792 236 21.9047 236 22.5811C236 23.4585 235.768 24.2599 235.305 24.986ZM101.355 21.4686C101.021 22.1729 100.576 22.7814 100.021 23.2943C99.4656 23.8067 98.8214 24.205 98.0882 24.4898C97.3546 24.7747 96.5831 24.9172 95.7712 24.9172C95.1022 24.9172 94.4082 24.7536 93.6898 24.4262C92.9716 24.0993 92.3059 23.6675 91.7145 23.145C91.1167 22.6187 90.6217 22.0206 90.2308 21.3516C89.8393 20.6825 89.6436 20.0062 89.6436 19.3231C89.6436 18.2839 89.7397 17.3903 89.9321 16.6428C90.1244 15.8956 90.4338 15.2622 90.8607 14.7428C91.2881 14.2231 91.85 13.7962 92.5477 13.4618C93.2449 13.1274 94.099 12.8532 95.11 12.6395L95.3878 12.6181C96.2985 12.5472 97.1457 12.6789 97.9289 13.013C98.7001 13.3398 99.3972 13.8192 99.9783 14.4225C100.562 15.0279 101.021 15.7431 101.355 16.5685C101.69 17.3939 101.857 18.2626 101.857 19.1735C101.857 19.9989 101.69 20.7641 101.355 21.4686ZM95.5592 13.3236C95.3769 13.3268 95.1998 13.3387 95.0277 13.3591V24.1389C95.1996 24.1756 95.3769 24.2018 95.559 24.2171L95.5592 13.3236ZM96.8313 24.1608C97.1975 24.0981 97.5527 23.9825 97.8857 23.8176C98.4408 23.5393 98.9069 23.17 99.2842 22.7071C99.6614 22.2447 99.9465 21.7073 100.139 21.0951C100.331 20.4829 100.427 19.8352 100.427 19.1516C100.427 18.4544 100.324 17.757 100.117 17.0595C99.911 16.3621 99.605 15.7355 99.1995 15.1804C98.8012 14.632 98.2919 14.1736 97.7048 13.835C97.4305 13.677 97.1371 13.5549 96.8317 13.4717V24.1608H96.8313ZM96.4614 13.3892C96.2856 13.3588 96.108 13.3388 95.9298 13.3294V24.2336H95.9641C96.1348 24.2336 96.3009 24.2261 96.4619 24.2106L96.4614 13.3892ZM94.6605 13.4171C94.3403 13.4795 94.0288 13.5805 93.7328 13.7177C93.1704 13.9815 92.6973 14.3445 92.3129 14.8067C91.9285 15.2693 91.6327 15.8033 91.4268 16.408C91.2201 17.0129 91.1171 17.6572 91.1171 18.3405C91.1171 19.0525 91.224 19.7568 91.4377 20.454C91.6509 21.1517 91.9678 21.7816 92.3877 22.3436C92.7985 22.8981 93.318 23.3631 93.9145 23.7103C94.1503 23.848 94.4006 23.9591 94.661 24.0415L94.6605 13.4171Z" fill="black"/>
</svg>
