<svg xmlns="http://www.w3.org/2000/svg" xmlns:xlink="http://www.w3.org/1999/xlink" data-name="Layer 1" width="1144" height="651.26" viewBox="0 0 1144 651.26"><defs><linearGradient id="a2db50a1-d77e-4212-a847-6fb1a49f9674-40" x1="905.83" y1="758.77" x2="905.83" y2="275.63" gradientUnits="userSpaceOnUse"><stop offset="0" stop-color="gray" stop-opacity="0.25"/><stop offset="0.54" stop-color="gray" stop-opacity="0.12"/><stop offset="1" stop-color="gray" stop-opacity="0.1"/></linearGradient></defs><title>logistics</title><g opacity="0.7"><rect x="142" y="399.26" width="125" height="69" fill="#65617d"/><rect x="186" y="411.26" width="38" height="8" opacity="0.1"/><rect x="190.75" y="412.26" width="28.5" height="6" opacity="0.1"/><rect x="269" y="399.26" width="125" height="69" fill="#65617d"/><rect x="313" y="411.26" width="38" height="8" opacity="0.1"/><rect x="317.75" y="412.26" width="28.5" height="6" opacity="0.1"/><rect x="142" y="328.26" width="125" height="69" fill="#65617d"/><rect x="186" y="340.26" width="38" height="8" opacity="0.1"/><rect x="190.75" y="341.26" width="28.5" height="6" opacity="0.1"/><rect x="269" y="328.26" width="125" height="69" fill="#65617d"/><rect x="313" y="340.26" width="38" height="8" opacity="0.1"/><rect x="317.75" y="341.26" width="28.5" height="6" opacity="0.1"/><rect x="142" y="256.26" width="125" height="69" fill="#65617d"/><rect x="186" y="268.26" width="38" height="8" opacity="0.1"/><rect x="190.75" y="269.26" width="28.5" height="6" opacity="0.1"/><rect x="269" y="256.26" width="125" height="69" fill="#65617d"/><rect x="313" y="268.26" width="38" height="8" opacity="0.1"/><rect x="317.75" y="269.26" width="28.5" height="6" opacity="0.1"/><rect x="269" y="184.26" width="125" height="69" fill="#65617d"/><rect x="313" y="196.26" width="38" height="8" opacity="0.1"/><rect x="317.75" y="197.26" width="28.5" height="6" opacity="0.1"/></g><g opacity="0.7"><rect x="396" y="398.26" width="125" height="69" fill="#65617d"/><rect x="440" y="410.26" width="38" height="8" opacity="0.1"/><rect x="444.75" y="411.26" width="28.5" height="6" opacity="0.1"/><rect x="523" y="398.26" width="125" height="69" fill="#65617d"/><rect x="567" y="410.26" width="38" height="8" opacity="0.1"/><rect x="571.75" y="411.26" width="28.5" height="6" opacity="0.1"/><rect x="396" y="327.26" width="125" height="69" fill="#65617d"/><rect x="440" y="339.26" width="38" height="8" opacity="0.1"/><rect x="444.75" y="340.26" width="28.5" height="6" opacity="0.1"/><rect x="523" y="327.26" width="125" height="69" fill="#65617d"/><rect x="567" y="339.26" width="38" height="8" opacity="0.1"/><rect x="571.75" y="340.26" width="28.5" height="6" opacity="0.1"/><rect x="396" y="255.26" width="125" height="69" fill="#65617d"/><rect x="440" y="267.26" width="38" height="8" opacity="0.1"/><rect x="444.75" y="268.26" width="28.5" height="6" opacity="0.1"/><rect x="523" y="255.26" width="125" height="69" fill="#65617d"/><rect x="567" y="267.26" width="38" height="8" opacity="0.1"/><rect x="571.75" y="268.26" width="28.5" height="6" opacity="0.1"/><rect x="523" y="183.26" width="125" height="69" fill="#65617d"/><rect x="567" y="195.26" width="38" height="8" opacity="0.1"/><rect x="571.75" y="196.26" width="28.5" height="6" opacity="0.1"/></g><path d="M745.36,466.38a4.55,4.55,0,0,0-2.49-3.58,4.65,4.65,0,0,0-6.16,2.6L714.5,512.13l-5,184h8l3-183.59,24.44-43.26A4.75,4.75,0,0,0,745.36,466.38Z" transform="translate(-28 -124.37)" fill="#3f3d56"/><path d="M1103.56,737.69A144.74,144.74,0,0,1,1082.48,753a3.5,3.5,0,0,1-.39.46,6.51,6.51,0,0,1-2.75,1.38h0a164.61,164.61,0,0,1-81.08,20.82H448.44c-63-6.48-101.44-15.07-101.44-24.5,0-7.31,23.08-14.12,62.82-19.82q6.18-.9,12.89-1.74,4.13-.52,8.45-1l4.89-.57q5.44-.62,11.17-1.21l.31,0,4-.4c3.38-.35,6.83-.68,10.35-1l2.56-.23,6.53-.58q6.36-.57,13-1.09,5.51-.43,11.2-.86c38.46-2.85,82.8-5,131.05-6.39L640,715.8l4.64-.1,9.8-.22,3.93-.08,4.13-.08,2.94-.05,13.8-.22,7.09-.1h1.45q25.15-.3,51.24-.31c34.38,0,67.72.41,99.49,1.19h0q27.36.66,53.05,1.68h.16c49.38,1.94,93.58,4.8,130.16,8.35l.67.07c9.39.91,18.28,1.88,26.62,2.88,7.85.94,15.22,1.93,22.06,2.94,2.37.35,4.67.71,6.91,1.06l.57.1C1088.19,734.44,1096.51,736,1103.56,737.69Z" transform="translate(-28 -124.37)" fill="#17baa8" opacity="0.1"/><path d="M870.84,363c6.12-1.65,11.57-5.1,16.91-8.51l18.61-11.85c-5.05-.4-9.41-4-12-8.36s-3.66-9.43-4.54-14.41c-8,3.12-14.93,8.41-21.39,14-2.56,2.21-8,5.55-8.79,9s4.25,6.25,6.2,8.56C866.51,352.2,872.82,362.45
,870.84,363Z" transform="translate(-28 -124.37)" fill="#fbbebe"/><path d="M870.84,363c6.12-1.65,11.57-5.1,16.91-8.51l18.61-11.85c-5.05-.4-9.41-4-12-8.36s-3.66-9.43-4.54-14.41c-8,3.12-14.93,8.41-21.39,14-2.56,2.21-8,5.55-8.79,9s4.25,6.25,6.2,8.56C866.51,352.2,872.82,362.45,870.84,363Z" transform="translate(-28 -124.37)" opacity="0.1"/><path d="M769.15,460.88c-3.28,1.68-6.77,3.4-10.44,3.16-3.3-.21-6.31-2-8.79-4.19-2-1.74-4.06-3.91-6.69-3.73-1.76.12-3.24,1.31-4.6,2.44l-7.25,6.07a6.82,6.82,0,0,0-2.63,3.4,6.74,6.74,0,0,0,.17,2.82c.33,1.62.88,3.51,2.44,4.06s3.26-.63,4.91-1.08a5.78,5.78,0,0,1,5.67,1.67,3.37,3.37,0,0,1,1,2.18c0,1.81-2,3-3.84,3.09s-3.6-.51-5.42-.4a.83.83,0,0,0-.93.74,3.82,3.82,0,0,0,1.17,3.48,10.15,10.15,0,0,0,3.26,2,13.3,13.3,0,0,0,4.46,1.3c3.07.2,5.89-1.5,8.8-2.49,3.92-1.32,8.14-1.36,12.28-1.35s8.34.07,12.31-1.09,7.74-3.73,9.29-7.56a1.82,1.82,0,0,0,.17-1.16,1.92,1.92,0,0,0-.84-1c-5.58-4.13-7.84-9.15-14.12-12.12Z" transform="translate(-28 -124.37)" fill="#fbbebe"/><path d="M769.15,460.88c-3.28,1.68-6.77,3.4-10.44,3.16-3.3-.21-6.31-2-8.79-4.19-2-1.74-4.06-3.91-6.69-3.73-1.76.12-3.24,1.31-4.6,2.44l-7.25,6.07a6.82,6.82,0,0,0-2.63,3.4,6.74,6.74,0,0,0,.17,2.82c.33,1.62.88,3.51,2.44,4.06s3.26-.63,4.91-1.08a5.78,5.78,0,0,1,5.67,1.67,3.37,3.37,0,0,1,1,2.18c0,1.81-2,3-3.84,3.09s-3.6-.51-5.42-.4a.83.83,0,0,0-.93.74,3.82,3.82,0,0,0,1.17,3.48,10.15,10.15,0,0,0,3.26,2,13.3,13.3,0,0,0,4.46,1.3c3.07.2,5.89-1.5,8.8-2.49,3.92-1.32,8.14-1.36,12.28-1.35s8.34.07,12.31-1.09,7.74-3.73,9.29-7.56a1.82,1.82,0,0,0,.17-1.16,1.92,1.92,0,0,0-.84-1c-5.58-4.13-7.84-9.15-14.12-12.12Z" transform="translate(-28 -124.37)" opacity="0.1"/><path d="M886.25,354.23A12.06,12.06,0,0,0,875.67,353a22.84,22.84,0,0,0-9.11,6.07,41.9,41.9,0,0,0-6.43,8.49c-1.7,3-3,6.14-4.7,9.13-3,5.35-6.92,10.07-10.86,14.75-2.45,2.91-4.93,5.86-8.07,8s-6.65,3.45-8.78,6.42c-.67.94-1.15,2-1.81,2.95-2.09,3.06-5.64,4.7-8.73,6.75-8.86,5.9-14.37,15.72-22.65,22.41-3.57,2.88-7.6,5.14-11.11,8.08-3.27,2.73-6,6-9.26,8.8s-7.09,5.11-11.34,5.37c2.84,6.33,6.23,12.54,11.1,17.47s12.17,8.08,18.82,6.15c2.36-.68,4.67-2.12,5.57-4.4a18.82,18.82,0,0,1,1.18-3.41,7,7,0,0,1,2.53-2.07,597.79,597.79,0,0,0,76.11-52.73c6.43-5.24,12.81-9.93,19.41-15a42.43,42.43,0,0,0,6.53-5.72,21.74,21.74,0,0,0,2.64-23.95,56.81,56.81,0,0,0-6.06-8.21A72.15,72.15,0,0,0,886.25,354.23Z" transform="translate(-28 -124.37)" fill="#3F3D56"/><path d="M886.25,354.23A12.06,12.06,0,0,0,875.67,353a22.84,22.84,0,0,0-9.11,6.07,41.9,41.9,0,0,0-6.43,8.49c-1.7,3-3,6.14-4.7,9.13-3,5.35-6.92,10.07-10.86,14.75-2.45,2.91-4.93,5.86-8.07,8s-6.65,3.45-8.78,6.42c-.67.94-1.15,2-1.81,2.95-2.09,3.06-5.64,4.7-8.73,6.75-8.86,5.9-14.37,15.72-22.65,22.41-3.57,2.88-7.6,5.14-11.11,8.08-3.27,2.73-6,6-9.26,8.8s-7.09,5.11-11.34,5.37c2.84,6.33,6.23,12.54,11.1,17.47s12.17,8.08,18.82,6.15c2.36-.68,4.67-2.12,5.57-4.4a18.82,18.82,0,0,1,1.18-3.41,7,7,0,0,1,2.53-2.07,597.79,597.79,0,0,0,76.11-52.73c6.43-5.24,12.81-9.93,19.41-15a42.43,42.43,0,0,0,6.53-5.72,21.74,21.74,0,0,0,2.64-23.95,56.81,56.81,0,0,0-6.06-8.21A72.15,72.15,0,0,0,886.25,354.23Z" transform="translate(-28 -124.37)" opacity="0.1"/><path d="M843.28,725.2c-1.75,1-3.9,1.56-5.13,3.18-.4.52-.67,1.13-1.1,1.63-1.33,1.56-3.69,1.63-5.54,2.52-1.48.7-2.68,2-4.25,2.41a9.22,9.22,0,0,1-2.87.22l-9.72-.29c-3.08-.09-6.69.07-8.48,2.58a9.16,9.16,0,0,0-1.22,3c-.75,2.87-1.36,6.12.21,8.64,1.88,3,6,3.61,9.55,3.81a275.64,275.64,0,0,0,41.14-.8,32.53,32.53,0,0,1,5.58-.23c1.48.12,2.93.45,4.39.7,7.37,1.25,14.91.52,22.35-.22a11.68,11.68,0,0,0,3.67-.78,3.89,3.89,0,0,0,2.33-2.77c.31-2.06-1.62-3.81-1.83-5.88-.15-1.46.55-3.09-.25-4.33a7.15,7.15,0,0,0-1-1c-1.34-1.39-1.73-3.42-2.06-5.32L887.3,722a3.16,3.16,0,0,0-.84-1.94,2.89,2.89,0,0,0-1.24-.51c-7.62-1.72-15.43-.15-23,.81a61.82,61.82,0,0,1-11.77.59c-1.7-.11-2.36-.31-3.63.8S844.87,724.27,843.28,725.2Z" transform="translate(-28 -124.37)" fill="#3f3d56"/><path d="M1027.29,737.56a16.86,16.86,0,0,1-4.26,1.67q-5.89,1.72-11.76,3.59a7.8,7.8,0,0,0-2.87,1.38c-1.36,1.2-1.71,3.16-1.81,5a6.27,6.27,0,0,0,.35,3,6,6,0,0,0,2,2.22c4.48,3.39,10.33,4.44,15.95,4.44s11.2-.95,16.82-1.1c6.79-.18,13.76.78,20.29-1.12a17.27,17.27,0,0,1,3.86-.94,16.4,16.4,0,0,1,2.62.17,27.78,27.78,0,0,0,10.42-.95,6.41,6.41,0,0,0,2.76-1.37,2.58,2.58,0,0,0,.74-2.82c-.36-.81-1.28-1.4-1.29-2.29a4.3,4.3,0,0,1,.33-1.24c.41-1.37-.25-2.8-.71-4.15-1.29-3.86-1.08-8.3-3.39-11.65s-6.55-4.73-10.58-5.26a29.34,29.34,0,0,0-9.85.28c-3.65.78-7.06,2.41-10.64,3.45a34.8,34.8,0,0,1-12.8,1.21c-2.86-.24-1.88.21-2.85,2.61A8.51,8.51,0,0,1,1027.29,737.56Z" transform="translate(-28 -124.37)" fill="#3f3d56"/><circle cx="839.5" cy="195.76" r="29" fill="#fbbebe"/><path d="M1077.74,727.19c-9,7.73-21.15,11.11-33,11.23-5,.05-10.19-.49-14.45-3.08-.3-1.64-.42-3.41-.72-5.05-5.17-1.08-9.18-5.29-11.68-9.95s-3.77-9.84-5.63-14.78c-2.84-7.52-7-14.45-11.16-21.33-3.82-6.34-7.65-12.7-12-18.69-2.88-4-6-7.76-8.85-11.75a104,104,0,0,1-17.05-37.06,48.46,48.46,0,0,0-2.07-7.53c-1.72-4.18-4.87-7.58-7.3-11.39a37.63,37.63,0,0,1-5.29-13.49c-.49-2.72-1.33-5.66-4.06-5.94h0c-5.74,11.15-11.59,22.48-20.27,31.55a32.71,32.71,0,0,0-3.73,4.26,41,41,0,0,0-2.4,4.6,29.64,29.64,0,0,1-5.3,7.72,12.36,12.36,0,0,1-6.82,3.72,46.64,46.64,0,0,1-3.28,28.5c-1.21,2.64-2.66,5.16-3.8,7.83-4.66,11-3.58,23.41-4.07,35.34a37.15,37.15,0,0,1-.88,7.43c-1.21,4.88-3.71,10.07-2.5,14.95-12.54,4.79-26.47,4.49-39.75,2.47a19.15,19.15,0,0,1-7.41-2.25,20.39,20.39,0,0,1-4.86-4.86,4.87,4.87,0,0,1-1.11-1.93c-.52-2.28,2-4,3.17-6s1.38-5.17-.23-6.81c.8-13.09,4.42-25.87,5.22-39,.32-5.2.19-10.42.43-15.63s.8-10.28,1.38-15.4c1.32-11.69,4.52-23.15,4.07-34.9a20.3,20.3,0,0,1,2.41-10.39,52.4,52.4,0,0,1,4.9-6.88c6.14-7.93,13.52-15.88,15.71-25.67,1.13-5.05,3.63-9.67,6.11-14.21,1.47-2.71,3-5.48,5.34-7.47a23.39,23.39,0,0,0,3.53-3c1.64-2.11,1.7-5,2.67-7.52.5-1.3,1.27-2.5,1.64-3.84a21.88,21.88,0,0,0,.45-4.5c.32-4.84,2.18-9.52,4.14-13.95a42.73,42.73,0,0,1-12-10.34,25.3,25.3,0,0,1-2.9-4.37c-2.06-4.06-2.53-8.69-3.5-13.14-2.31-10.62-7.62-20.61-8.36-31.46-.22-3.31,0-6.73-1.15-9.86a31,31,0,0,0-1.86-3.85,15.75,15.75,0,0,1-1.58-3.88c-.64-2.95.24-6,0-9-.24-2.65-1.37-5.13-1.93-7.72a36.66,36.66,0,0,1-.29-10.2c.25-4,1.12-8.13.78-12.08A46.67,46.67,0,0,1,879,350.7l.23-.23c1.91-2,4-3.77,5.72-5.89,2.34-2.84,4-6.18,6.47-8.94,1.08-1.23,2.3-2.33,3.37-3.57a29.64,29.64,0,0,1,3.25-3.64,5,5,0,0,1,4.52-1.21,12.53,12.53,0,0,0,1.38,4.26c2.08.16,3.93.45,6,.61a13.55,13.55,0,0,1,2.84.44c1.95.59,3.51,2,5.18,3.21,4.16,2.93,9.27,4.29,13.36,7.31,6,4.45,9,11.8,12.62,18.39,4.79,8.83,12.6,16.34,16,25.78l4.69,12.84c3.07,8.38,6.14,16.79,10.3,24.69,5.79,11,13.63,20.91,18.28,32.42a5.22,5.22,0,0,0,2.43,2.68,209.12,209.12,0,0,1,16.83,28c2.57,5.16,5,10.52,5.74,16.23,1.09,8.07-1.11,16.23-4.17,23.77a12.39,12.39,0,0,0-1,3.4c-.2,1.91.53,3.79.73,5.7a10.55,10.55,0,0,1-.77,5.24,24,24,0,0,0-1.57,3.62c-.54,2.3.42,4.64.94,6.94,1.76,7.79,1.44,15.86,1,23.84-.23,4,3,7.17,5.69,10.1,5,5.49,8.9,11.91,12.67,18.32a59.19,59.19,0,0,1,5.16,10.28c1.43,4.09,2,8.42,2.79,12.67,2.54,13.11,10.86,24.7,13.12,37.85a33.63,33.63,0,0,0,7.72,16.27,35.41,35.41,0,0,1,3.33,4,16.11,16.11,0,0,1,1.64,3.58,26.36,26.36,0,0,1,1.37,9.07,13.55,13.55,0,0,0,.25,4.41c.94,3.05,4.3,4.73,5.68,7.6s.43,6.55,1,9.81A10.56,10.56,0,0,0,1077.74,727.19Z" transform="translate(-28 -124.37)" fill="#3F3D56"/><path d="M775.15,451.88c-3.28,1.68-6.77,3.4-10.44,3.16-3.3-.21-6.31-2-8.79-4.19-2-1.74-4.06-3.91-6.69-3.73-1.76.12-3.24,1.31-4.6,2.44l-7.25,6.07a6.82,6.82,0,0,0-2.63,3.4,6.74,6.74,0,0,0,.17,2.82c.33,1.62.88,3.51,2.44,4.06s3.26-.63,4.91-1.08a5.78,5.78,0,0,1,5.67,1.67,3.37,3.37,0,0,1,1,2.18c0,1.81-2,3-3.84,3.09s-3.6-.51-5.42-.4a.83.83,0,0,0-.93.74,3.82,3.82,0,0,0,1.17,3.48,10.15,10.15,0,0,0,3.26,2,13.3,13.3,0,0,0,4.46,1.3c3.07.2,5.89-1.5,8.8-2.49,3.92-1.32,8.14-1.36,12.28-1.35s8.34.07,12.31-1.09,7.74-3.73,9.29-7.56a1.82,1.82,0,0,0,.17-1.16,1.92,1.92,0,0,0-.84-1c-5.58-4.13-7.84-9.15-14.12-12.12Z" transform="translate(-28 -124.37)" fill="#fbbebe"/><path d="M853.39,302.31c-1.73.28-3.2,1.45-4.84,2.1a8.34,8.34,0,0,1-6.84-.36,5.28,5.28,0,0,1-1.87-1.52c-1.34-1.86-.87-4.56-.05-6.74,3.88-10.31,14.24-16.69,24.5-17.1s20.24,4.38,28.33,11.23a38.71,38.71,0,0,1,6.43,6.73c4.22,5.85,6.13,13.32,6.69,20.72a27,27,0,0,1-.61,9.28,11.28,11.28,0,0,1-5.26,7.09c-2.86,1.46-6.29,1-9.18-.4s-5.37-3.61-7.85-5.72a11.66,11.66,0,0,0-3.91-2.49,4,4,0,0,0-4.23,1c-1.34,1.61-1,4.25-2.22,6s-3.76,2-5.9,2-4.31-.18-5.59-1.88c-1.17-1.54-1-3.79-.56-5.73s1.19-3.86,1-5.85c-.41-4-3.91-6.46-5-10.14-.71-2.41.85-3.43.69-5.61C857,303,854.94,302.06,853.39,302.31Z" transform="translate(-28 -124.37)" fill="#3f3d56"/><path d="M944.5,578.13l0,.25h0c-5.74,11.15-11.59,22.48-20.27,31.55a32.71,32.71,0,0,0-3.73,4.26,41,41,0,0,0-2.4,4.6,29.64,29.64,0,0,1-5.3,7.72l-7.24,3.62,23-120Z" transform="translate(-28 -124.37)" opacity="0.1"/><path d="M911.07,396.51a42.43,42.43,0,0,1-6.53,5.72c-6.6,5-13,9.72-19.41,15q-7.75,6.31-15.72,12.36a15.75,15.75,0,0,1-1.58-3.88c-.64-2.95.24-6,0-9-.24-2.65-1.37-5.13-1.93-7.72a36.66,36.66,0,0,1-.29-10.2c.25-4,1.12-8.13.78-12.08A46.67,46.67,0,0,1,879,350.7l.23-.23a17.56,17.56,0,0,1,3.4-1.52,12.06,12.06,0,0,1,10.58,1.28,72.15,72.15,0,0,1,14.4,14.12,56.81,56.81,0,0,1,6.06,8.21A21.74,21.74,0,0,1,911.07,396.51Z" transform="translate(-28 -124.37)" opacity="0.1"/><path d="M892.25,345.23A12.06,12.06,0,0,0,881.67,344a22.84,22.84,0,0,0-9.11,6.07,41.9,41.9,0,0,0-6.43,8.49c-1.7,3-3,6.14-4.7,9.13-3,5.35-6.92,10.07-10.86,14.75-2.45,2.91-4.93,5.86-8.07,8s-6.65,3.45-8.78,6.42c-.67.94-1.15,2-1.81,2.95-2.09,3.06-5.64,4.7-8.73,6.75-8.86,5.9-14.37,15.72-22.65,22.41-3.57,2.88-7.6,5.14-11.11,8.08-3.27,2.73-6,6-9.26,8.8s-7.09,5.11-11.34,5.37c2.84,6.33,6.23,12.54,11.1,17.47s12.17,8.08,18.82,6.15c2.36-.68,4.67-2.12,5.57-4.4a18.82,18.82,0,0,1,1.18-3.41,7,7,0,0,1,2.53-2.07,597.79,597.79,0,0,0,76.11-52.73c6.43-5.24,12.81-9.93,19.41-15a42.43,42.43,0,0,0,6.53-5.72,21.74,21.74,0,0,0,2.64-23.95,56.81,56.81,0,0,0-6.06-8.21A72.15,72.15,0,0,0,892.25,345.23Z" transform="translate(-28 -124.37)" fill="#3F3D56"/><g opacity="0.1"><path d="M868.58,330.1c-2,0-4.31-.18-5.59-1.88-1.16-1.54-1-3.79-.56-5.73s1.19-3.86,1-5.85c-.41-4-3.91-6.46-5-10.14-.71-2.41.85-3.43.69-5.61-.14-1.89-2.19-2.83-3.74-2.58-1.73.28-3.2,1.45-4.84,2.1a8.34,8.34,0,0,1-6.84-.36,5.28,5.28,0,0,1-1.87-1.52c-1.34-1.86-.87-4.56-.05-6.74,0-.08.07-.15.1-.23a24.16,24.16,0,0,0-2.1,4.23c-.82,2.18-1.29,4.88.05,6.74a5.28,5.28,0,0,0,1.87,1.52,8.34,8.34,0,0,0,6.84.36c1.64-.65,3.11-1.82,4.84-2.1,1.55-.25,3.6.69,3.74,2.58.16,2.18-1.4,3.2-.69,5.61,1.07,3.68,4.57,6.18,5,10.14.2,2-.53,3.92-1,5.85s-.6,4.19.56,5.73c1.28,1.7,3.57,1.86,5.59,1.88s4.62-.12,5.9-2a8.43,8.43,0,0,0,1.07-3.07C872.19,330,870.29,330.12,868.58,330.1Z" transform="translate(-28 -124.37)"/><path d="M901.87,329.74c-2.86,1.46-6.29,1-9.18-.4s-5.37-3.61-7.85-5.72a11.66,11.66,0,0,0-3.91-2.49,4,4,0,0,0-4.23,1,7.58,7.58,0,0,0-1.25,3.36,4.23,4.23,0,0,1,3.48-.37,11.66,11.66,0,0,1,3.91,2.49c2.48,2.11,5,4.33,7.85,5.72s6.32,1.86,9.18.4A11.13,11.13,0,0,0,905,327,9.25,9.25,0,0,1,901.87,329.74Z" transform="translate(-28 -124.37)"/></g><circle cx="625" cy="605.26" r="30" fill="#3f3d56"/><circle cx="625" cy="605.26" r="30" opacity="0.1"/><circle cx="625" cy="605.26" r="19" fill="#65617d"/><circle cx="625" cy="605.26" r="19" opacity="0.1"/><path d="M630,682.63l19.68,44.5a3.82,3.82,0,0,0,6.93.14L680,679.63Z" transform="translate(-28 -124.37)" fill="#3f3d56"/><path d="M630,682.63l19.68,44.5a3.82,3.82,0,0,0,6.93.14L680,679.63Z" transform="translate(-28 -124.37)" opacity="0.1"/><circle cx="438" cy="605.26" r="30" fill="#3f3d56"/><circle cx="438" cy="605.26" r="30" opacity="0.1"/><circle cx="438" cy="605.26" r="19" fill="#65617d"/><circle cx="438" cy="605.26" r="19" opacity="0.1"/><path d="M443,682.63l19.68,44.5a3.82,3.82,0,0,0,6.93.14L493,679.63Z" transform="translate(-28 -124.37)" fill="#3f3d56"/><path d="M443,682.63l19.68,44.5a3.82,3.82,0,0,0,6.93.14L493,679.63Z" transform="translate(-28 -124.37)" opacity="0.1"/><path d="M750.36,468.38a4.55,4.55,0,0,0-2.49-3.58,4.65,4.65,0,0,0-6.16,2.6L724.5,510.13l-5,192h8l3-191.59,19.44-39.26A4.75,4.75,0,0,0,750.36,468.38Z" transform="translate(-28 -124.37)" fill="#3f3d56"/><polygon points="368.5 562.76 395.5 545.76 687 543.26 694.5 562.76 368.5 562.76" fill="#17baa8"/><polygon points="368.5 580.76 368.5 562.76 699.78 559.56 699.46 571.76 374.5 571.76 374.5 580.76 368.5 580.76" fill="#3f3d56"/><circle cx="410.5" cy="615.76" r="30" fill="#3f3d56"/><circle cx="410.5" cy="615.76" r="19" fill="#65617d"/><path d="M415.5,693.13l19.68,44.5a3.82,3.82,0,0,0,6.93.14l23.39-47.64Z" transform="translate(-28 -124.37)" fill="#3f3d56"/><circle cx="643.5" cy="615.76" r="30" fill="#3f3d56"/><circle cx="643.5" cy="615.76" r="19" fill="#65617d"/><path d="M648.5,693.13l19.68,44.5a3.82,3.82,0,0,0,6.93.14l23.39-47.64Z" transform="translate(-28 -124.37)" fill="#3f3d56"/><rect x="406" y="484.26" width="125" height="69" fill="#65617d"/><rect x="450" y="496.26" width="38" height="8" opacity="0.1"/><rect x="454.75" y="497.26" width="28.5" height="6" opacity="0.1"/><rect x="533" y="484.26" width="125" height="69" fill="#65617d"/><rect x="577" y="496.26" width="38" height="8" opacity="0.1"/><rect x="581.75" y="497.26" width="28.5" height="6" opacity="0.1"/><rect x="406" y="413.26" width="125" height="69" fill="#65617d"/><rect x="450" y="425.26" width="38" height="8" opacity="0.1"/><rect x="454.75" y="426.26" width="28.5" height="6" opacity="0.1"/><rect x="533" y="413.26" width="125" height="69" fill="#65617d"/><rect x="577" y="425.26" width="38" height="8" opacity="0.1"/><rect x="581.75" y="426.26" width="28.5" height="6" opacity="0.1"/><rect x="406" y="341.26" width="125" height="69" fill="#65617d"/><rect x="450" y="353.26" width="38" height="8" opacity="0.1"/><rect x="454.75" y="354.26" width="28.5" height="6" opacity="0.1"/><rect x="533" y="341.26" width="125" height="69" fill="#65617d"/><rect x="577" y="353.26" width="38" height="8" opacity="0.1"/><rect x="581.75" y="354.26" width="28.5" height="6" opacity="0.1"/><rect x="533" y="269.26" width="125" height="69" fill="#65617d"/><rect x="577" y="281.26" width="38" height="8" opacity="0.1"/><rect x="581.75" y="282.26" width="28.5" height="6" opacity="0.1"/></svg>